<svg xmlns="http://www.w3.org/2000/svg" width="155.486" height="146.223" viewBox="0 0 155.486 146.223">
  <g id="Groupe_1" data-name="Groupe 1" transform="translate(-39.32 -303.358)">
    <g id="Groupe_33" data-name="Groupe 33">
      <path id="Tracé_219" data-name="Tracé 219" d="M39.594,348.053c-.556-1.669-.365-4.066,1.488-4.428.456-.09.937-.023,1.391-.12,1.838-.4,1.843-2.765,2.67-4.329a5.347,5.347,0,0,1,4.893-2.439,9.9,9.9,0,0,1,5.347,2.043c4.222,3.03,6.534,7.741,8.6,12.292q2.826,6.228,5.43,12.539c2.036,4.932,4,10.139,3.258,15.372-.241,1.7-10.374-4.235-11.077-5.064-2.5-2.944-2.6-6.045-5.73-8.811C49.987,359.907,42.124,355.641,39.594,348.053Z" fill="#056066"/>
      <path id="Tracé_220" data-name="Tracé 220" d="M74.121,335.475a2.592,2.592,0,0,1,.582,1.01q.982,2.528,1.963,5.056a3.288,3.288,0,0,0,.85,1.41c1.236,1.029,3.211.1,4.85.379a4.014,4.014,0,0,1,3.039,3.791,17.14,17.14,0,0,1-.885,4.995c-1.561,6.666.541,13.54,2.512,20.113a2.171,2.171,0,0,1,.117,1.266,1.73,1.73,0,0,1-1.909.941,4.167,4.167,0,0,1-2.022-1.069c-3.339-2.821-5.123-6.849-6.591-10.8a119.463,119.463,0,0,1-4.8-16.448c-.538-2.5-1.562-5.506-1.477-8.053C70.395,336.66,72.153,333.64,74.121,335.475Z" fill="#056066"/>
      <path id="Tracé_221" data-name="Tracé 221" d="M53.519,334.484a4.254,4.254,0,0,1,3.9-3.028c.878.023,1.706.381,2.577.484,2.416.287,4.832-1.391,7.178-.784s3.339,3.107,3.987,5.272L80.4,367.27c.636,2.123,1.273,4.369.658,6.5s-2.984,3.992-5.281,3.385a6.227,6.227,0,0,1-2.929-2.138c-4.1-4.65-6.882-10.142-9.624-15.573q-3.38-6.7-6.761-13.392C54.746,342.658,51.918,338.418,53.519,334.484Z" fill="#0c7577"/>
    </g>
    <g id="Groupe_34" data-name="Groupe 34">
      <path id="Tracé_222" data-name="Tracé 222" d="M128.217,345.729c-.038-1.712-.75-4-2.068-4.046-.325-.01-.628.135-.953.116-1.317-.077-1.9-2.374-2.829-3.752a3.49,3.49,0,0,0-3.843-1.548,5.754,5.754,0,0,0-3.052,2.874c-2.063,3.644-2.449,8.6-2.71,13.357q-.357,6.512-.546,13.067c-.148,5.123-.182,10.5,1.587,15.451.573,1.6,5.854-5.839,6.119-6.76.941-3.273.255-6.3,1.655-9.5C124.209,358.961,128.388,353.511,128.217,345.729Z" fill="#056066"/>
      <path id="Tracé_223" data-name="Tracé 223" d="M102.225,339.3a3.053,3.053,0,0,0-.14,1.077l-.069,5.231a3.761,3.761,0,0,1-.221,1.509c-.569,1.2-2.107.635-3.127,1.178-1.125.6-1.427,2.526-1.093,4.185a24.434,24.434,0,0,0,1.806,4.7c2.662,6.2,2.944,13.221,3.24,19.924a3.1,3.1,0,0,0,.231,1.248,1.141,1.141,0,0,0,1.5.593,2.733,2.733,0,0,0,1.081-1.374c1.529-3.293,1.731-7.5,1.741-11.573a163.351,163.351,0,0,0-.824-16.752,51.153,51.153,0,0,0-.984-8.056C104.988,339.825,103.084,337.189,102.225,339.3Z" fill="#056066"/>
      <path id="Tracé_224" data-name="Tracé 224" d="M115.662,334.9c-.745-1.477-2.129-2.636-3.331-2.284a14.075,14.075,0,0,0-1.593.9c-1.535.682-3.548-.541-4.957.439s-1.459,3.57-1.361,5.778q.7,15.726,1.4,31.452a16.694,16.694,0,0,0,1.149,6.41c.927,1.961,2.954,3.374,4.332,2.4a4.809,4.809,0,0,0,1.422-2.563c1.587-5.194,2.1-10.986,2.59-16.71q.612-7.059,1.222-14.116C116.841,343.028,117.684,338.444,115.662,334.9Z" fill="#0c7577"/>
    </g>
    <g id="Groupe_35" data-name="Groupe 35">
      <path id="Tracé_225" data-name="Tracé 225" d="M156.3,352.994a4.321,4.321,0,0,0,1.216-1.025,4.221,4.221,0,0,0,.54-1.606,12.092,12.092,0,0,1,2.983-6.21,6.349,6.349,0,0,1,6.386-1.76c.52-3.012,2.637-5.463,4.681-7.735a10.09,10.09,0,0,1,4.24-3.27c1.729-.527,3.982.215,4.435,1.966.521,2.012-1.435,3.723-3.114,4.947a75.992,75.992,0,0,0-25.7,33.163c-.7,1.756-2.731,4.364-4.22,1.633-.425-.78.585-5.514.673-6.471A18.568,18.568,0,0,1,156.3,352.994Z" fill="#056066"/>
      <path id="Tracé_226" data-name="Tracé 226" d="M177.783,336.145c1.285-.984,2.584-1.954,3.883-2.93,1.374-1.032,3.078-1.9,4.752-1.52a1.311,1.311,0,0,1,.629.3,1.51,1.51,0,0,1,.238,1.367,9.635,9.635,0,0,1-1.5,3.689,9.271,9.271,0,0,1,3.309-1.15,1.882,1.882,0,0,1,1.064.072,1.675,1.675,0,0,1,.8,1.454,7.346,7.346,0,0,1-.824,3.387c.888-.175,2.058-.214,2.426.612a1.981,1.981,0,0,1,.125.735,3.941,3.941,0,0,1-.241,1.9c-.5,1.026-1.721,1.42-2.764,1.883-1.24.551-2.157,1.509-3.326,2.13s-2.3,1.263-3.434,1.979a10.7,10.7,0,0,0-3.042,2.5,24.811,24.811,0,0,0-1.295,2.275c-1.733,2.967-4.9,4.729-7.812,6.557a75.921,75.921,0,0,0-16,13.457c-.878.974-1.866,2.043-3.174,2.152-3.995.332-.343-5.213.159-6.564a73.685,73.685,0,0,1,4.407-9.639,75.338,75.338,0,0,1,12.792-17.1A87.286,87.286,0,0,1,177.783,336.145Z" fill="#0c7577"/>
      <path id="Tracé_227" data-name="Tracé 227" d="M194.143,346.459c1.269,1.478.559,3.866-.813,5.248s-3.239,2.148-4.784,3.333a2.9,2.9,0,0,0-.832.881,4.782,4.782,0,0,0-.2,2.362,7.623,7.623,0,0,1-2.822,5.625,21.864,21.864,0,0,1-5.6,3.242q-12.518,5.643-25.355,10.535c-.317-1.545.579-3.052,1.437-4.376,2.81-4.338,5.715-8.778,9.893-11.822,1.755-1.28,3.7-2.287,5.389-3.659,2.089-1.7,3.7-3.9,5.629-5.788a24.6,24.6,0,0,1,9.05-5.6C187.512,345.608,192.145,344.131,194.143,346.459Z" fill="#056066"/>
    </g>
    <path id="Tracé_228" data-name="Tracé 228" d="M190.166,393.436c-.007,2.161-.268,4.59-1.944,5.956-1.319,1.074-3.154,1.18-4.855,1.221q-6.5.157-13-.005a.621.621,0,0,1-.748-.847q.428-2.589.856-5.177l11.361-.387a.962.962,0,0,0,.775-.269.972.972,0,0,0-.049-.918,88.416,88.416,0,0,1-4-12.229,2.271,2.271,0,0,1,.017-1.644c1.478-2.63,7.565-2.2,9.306-.124C190.553,382.179,190.178,389.581,190.166,393.436Z" fill="#fdb34a"/>
    <path id="Tracé_229" data-name="Tracé 229" d="M41.313,381.873a17.063,17.063,0,0,0-1.008,5.061q-.325,3.426-.652,6.852c-.144,1.508-.235,3.2.742,4.355a5.466,5.466,0,0,0,2.473,1.425,53.675,53.675,0,0,0,15.626,2.968,2.066,2.066,0,0,0,1.518-.351,1.994,1.994,0,0,0,.49-1.144,20.3,20.3,0,0,0,.233-5.66,113.832,113.832,0,0,0-14.749-2.37,52.343,52.343,0,0,0,1.471-10.947C47.6,376.916,42.841,378.261,41.313,381.873Z" fill="#fdb34a"/>
    <path id="Tracé_230" data-name="Tracé 230" d="M190.166,393.436c-.007,2.161-.268,4.59-1.944,5.956-1.319,1.074-3.154,1.18-4.855,1.221q-6.5.157-13-.005a.621.621,0,0,1-.748-.847q.428-2.589.856-5.177l11.361-.387a.962.962,0,0,0,.775-.269.972.972,0,0,0-.049-.918,88.416,88.416,0,0,1-4-12.229,2.271,2.271,0,0,1,.017-1.644c1.478-2.63,7.565-2.2,9.306-.124C190.553,382.179,190.178,389.581,190.166,393.436Z" opacity="0.5" style="mix-blend-mode: soft-light;isolation: isolate"/>
    <path id="Tracé_231" data-name="Tracé 231" d="M41.313,381.873a17.063,17.063,0,0,0-1.008,5.061q-.325,3.426-.652,6.852c-.144,1.508-.235,3.2.742,4.355a5.466,5.466,0,0,0,2.473,1.425,53.675,53.675,0,0,0,15.626,2.968,2.066,2.066,0,0,0,1.518-.351,1.994,1.994,0,0,0,.49-1.144,20.3,20.3,0,0,0,.233-5.66,113.832,113.832,0,0,0-14.749-2.37,52.343,52.343,0,0,0,1.471-10.947C47.6,376.916,42.841,378.261,41.313,381.873Z" opacity="0.5" style="mix-blend-mode: soft-light;isolation: isolate"/>
    <g id="Groupe_36" data-name="Groupe 36">
      <path id="Tracé_232" data-name="Tracé 232" d="M76.565,339.387A7.267,7.267,0,0,1,77,336.3a2.639,2.639,0,0,1,2.436-1.671,3.811,3.811,0,0,1,2.254,1.394c5.417,5.59,9.652,12.212,13.476,18.993q2.393,4.244,4.591,8.594c1.706,3.377,3.355,6.934,3.425,10.718s-1.858,7.86-5.415,9.15c-3.091,1.122-6.657-.13-9.083-2.35a15.618,15.618,0,0,1-4.752-8.265c-.7-3.439-2.242-6.55-3.361-9.889A77.364,77.364,0,0,1,76.565,339.387Z" fill="#f6f4e9"/>
      <path id="Tracé_233" data-name="Tracé 233" d="M95.343,401.084a114.271,114.271,0,0,0,.8,12.8c.414,3.131,1.085,6.328,2.857,8.943a3.136,3.136,0,0,0,2.33-2.061,8.769,8.769,0,0,0,.421-3.216,185.7,185.7,0,0,0-2.009-25.1c-.526-3.895-.984-8.578-3.207-11.934-2.226,1.3-1.192,6.613-1.221,8.769Q95.232,395.185,95.343,401.084Z" fill="#0c7577"/>
      <path id="Tracé_234" data-name="Tracé 234" d="M99.178,409.7c.784,3.209,1.774,6.494,3.946,8.981.38.435.918.877,1.471.712a1.419,1.419,0,0,0,.76-.743,9.95,9.95,0,0,0,.734-5.437c-.693-11.244-3.127-22.588-8.856-32.287-1.493-2.528-1.151,2.966-1.147,3.671q.024,4.224.377,8.439A108.462,108.462,0,0,0,99.178,409.7Z" fill="#056066"/>
      <path id="Tracé_235" data-name="Tracé 235" d="M101.609,396.289c1.69,5.514,3.514,11.134,7.043,15.7a2.074,2.074,0,0,0,1.416.988,1.459,1.459,0,0,0,1.336-1.228,4.155,4.155,0,0,0-.215-1.941,97.8,97.8,0,0,0-11.066-25.166,18.28,18.28,0,0,0-2.832-3.9c-.341,1.97,1.147,4.914,1.707,6.832Q100.276,391.938,101.609,396.289Z" fill="#0c7577"/>
      <path id="Tracé_236" data-name="Tracé 236" d="M91.288,370.959a24.955,24.955,0,0,1,4.093-1.89,6.17,6.17,0,0,1,2.067-.448,2.5,2.5,0,0,1,1.906.784" fill="none" stroke="#000" stroke-miterlimit="10" stroke-width="1.838" style="mix-blend-mode: soft-light;isolation: isolate"/>
      <path id="Tracé_237" data-name="Tracé 237" d="M88.834,365.62a11.453,11.453,0,0,1,7.332-3.383,2.965,2.965,0,0,1,1.459.178" fill="none" stroke="#000" stroke-miterlimit="10" stroke-width="1.838" style="mix-blend-mode: soft-light;isolation: isolate"/>
      <path id="Tracé_238" data-name="Tracé 238" d="M85.639,360.612a7.756,7.756,0,0,1,6.757-3.43" fill="none" stroke="#000" stroke-miterlimit="10" stroke-width="1.838" style="mix-blend-mode: soft-light;isolation: isolate"/>
      <path id="Tracé_239" data-name="Tracé 239" d="M84.33,355a5.963,5.963,0,0,1,4.247-2.492" fill="none" stroke="#000" stroke-miterlimit="10" stroke-width="1.838" style="mix-blend-mode: soft-light;isolation: isolate"/>
      <path id="Tracé_240" data-name="Tracé 240" d="M82.93,350.4a11.9,11.9,0,0,1,2.756-1.663" fill="none" stroke="#000" stroke-miterlimit="10" stroke-width="1.838" style="mix-blend-mode: soft-light;isolation: isolate"/>
      <path id="Tracé_241" data-name="Tracé 241" d="M81.4,345.818a5.389,5.389,0,0,1,1.834-.611" fill="none" stroke="#000" stroke-miterlimit="10" stroke-width="1.838" style="mix-blend-mode: soft-light;isolation: isolate"/>
    </g>
    <path id="Tracé_242" data-name="Tracé 242" d="M111.189,409.8a97.826,97.826,0,0,0-11.065-25.166c-.356-.574-.722-1.178-1.111-1.768,2.758-1.7,4.231-5.233,4.169-8.547-.07-3.784-1.719-7.341-3.425-10.718q-2.2-4.349-4.591-8.594c-3.824-6.781-8.058-13.4-13.476-18.993a3.809,3.809,0,0,0-2.254-1.394A2.638,2.638,0,0,0,77,336.3a7.267,7.267,0,0,0-.435,3.092,77.369,77.369,0,0,0,4.006,23.582c1.119,3.339,2.656,6.45,3.361,9.889a15.618,15.618,0,0,0,4.752,8.265,10.227,10.227,0,0,0,6.456,2.751c-.124,1.95.188,4.186.171,5.413q-.079,5.9.032,11.8a114.271,114.271,0,0,0,.8,12.8c.414,3.131,1.085,6.328,2.857,8.942a3.136,3.136,0,0,0,2.331-2.06,8.789,8.789,0,0,0,.42-3.216c0-.279-.018-.557-.02-.835a12.754,12.754,0,0,0,1.4,1.959c.38.435.918.877,1.471.712a1.422,1.422,0,0,0,.76-.743,9.95,9.95,0,0,0,.734-5.437c-.133-2.152-.353-4.306-.624-6.454a29.725,29.725,0,0,0,3.187,5.231,2.074,2.074,0,0,0,1.416.988,1.459,1.459,0,0,0,1.336-1.229A4.152,4.152,0,0,0,111.189,409.8Z" style="mix-blend-mode: soft-light;isolation: isolate"/>
    <g id="Groupe_37" data-name="Groupe 37">
      <path id="Tracé_243" data-name="Tracé 243" d="M132.644,391.414a7.264,7.264,0,0,1-2.607,1.721,2.639,2.639,0,0,1-2.865-.721,3.808,3.808,0,0,1-.446-2.612c.606-7.761,2.768-15.318,5.321-22.672q1.6-4.6,3.4-9.129c1.4-3.514,2.978-7.1,5.768-9.661s7.122-3.808,10.443-2c2.887,1.575,4.308,5.077,4.25,8.366a15.622,15.622,0,0,1-3.052,9.031c-2.112,2.8-3.426,6.015-5.189,9.064A77.339,77.339,0,0,1,132.644,391.414Z" fill="#f6f4e9"/>
      <path id="Tracé_244" data-name="Tracé 244" d="M132.644,391.414a7.264,7.264,0,0,1-2.607,1.721,2.639,2.639,0,0,1-2.865-.721,3.808,3.808,0,0,1-.446-2.612c.606-7.761,2.768-15.318,5.321-22.672q1.6-4.6,3.4-9.129c1.4-3.514,2.978-7.1,5.768-9.661s7.122-3.808,10.443-2c2.887,1.575,4.308,5.077,4.25,8.366a15.622,15.622,0,0,1-3.052,9.031c-2.112,2.8-3.426,6.015-5.189,9.064A77.339,77.339,0,0,1,132.644,391.414Z" style="mix-blend-mode: soft-light;isolation: isolate"/>
      <path id="Tracé_245" data-name="Tracé 245" d="M166.47,336.507a113.981,113.981,0,0,0,9.07-9.07c2.074-2.382,4.026-5,4.814-8.059a3.135,3.135,0,0,0-3.087-.384,8.778,8.778,0,0,0-2.689,1.813,185.772,185.772,0,0,0-17.489,18.117c-2.571,2.972-5.779,6.414-6.824,10.3,2.452.8,5.747-3.483,7.382-4.888Q162.122,340.493,166.47,336.507Z" fill="#0c7577"/>
      <path id="Tracé_246" data-name="Tracé 246" d="M170.388,327.933c1.887-2.711,3.695-5.627,4.122-8.9.074-.572.05-1.268-.44-1.574a1.427,1.427,0,0,0-1.06-.078,9.946,9.946,0,0,0-4.561,3.048c-7.972,7.96-14.865,17.292-18.346,28.007-.907,2.791,2.985-1.1,3.511-1.57q3.151-2.814,6.078-5.868A108.432,108.432,0,0,0,170.388,327.933Z" fill="#056066"/>
      <path id="Tracé_247" data-name="Tracé 247" d="M158.729,334.983c3.015-4.917,6.022-10,7.106-15.668a2.077,2.077,0,0,0-.2-1.716,1.459,1.459,0,0,0-1.805-.187,4.125,4.125,0,0,0-1.313,1.445,97.816,97.816,0,0,0-11.544,24.95,18.274,18.274,0,0,0-1.049,4.7c1.7-1.048,2.926-4.113,3.992-5.8Q156.35,338.862,158.729,334.983Z" fill="#0c7577"/>
      <path id="Tracé_248" data-name="Tracé 248" d="M146.569,359.483a25.05,25.05,0,0,1-4.125-1.817,6.182,6.182,0,0,1-1.7-1.254,2.5,2.5,0,0,1-.674-1.947" fill="none" stroke="#000" stroke-miterlimit="10" stroke-width="1.838" style="mix-blend-mode: soft-light;isolation: isolate"/>
      <path id="Tracé_249" data-name="Tracé 249" d="M144.191,364.856A11.452,11.452,0,0,1,136.8,361.6a2.976,2.976,0,0,1-.832-1.212" fill="none" stroke="#000" stroke-miterlimit="10" stroke-width="1.838" style="mix-blend-mode: soft-light;isolation: isolate"/>
      <path id="Tracé_250" data-name="Tracé 250" d="M142.551,370.566a7.758,7.758,0,0,1-7.044-2.8" fill="none" stroke="#000" stroke-miterlimit="10" stroke-width="1.838" style="mix-blend-mode: soft-light;isolation: isolate"/>
      <path id="Tracé_251" data-name="Tracé 251" d="M139.213,375.258a5.963,5.963,0,0,1-4.679-1.534" fill="none" stroke="#000" stroke-miterlimit="10" stroke-width="1.838" style="mix-blend-mode: soft-light;isolation: isolate"/>
      <path id="Tracé_252" data-name="Tracé 252" d="M136.691,379.352a11.907,11.907,0,0,1-3.07-.966" fill="none" stroke="#000" stroke-miterlimit="10" stroke-width="1.838" style="mix-blend-mode: soft-light;isolation: isolate"/>
      <path id="Tracé_253" data-name="Tracé 253" d="M134.266,383.534a5.377,5.377,0,0,1-1.672-.969" fill="none" stroke="#000" stroke-miterlimit="10" stroke-width="1.838" style="mix-blend-mode: soft-light;isolation: isolate"/>
    </g>
    <g id="Groupe_38" data-name="Groupe 38">
      <path id="Tracé_254" data-name="Tracé 254" d="M124.593,389.734a7.251,7.251,0,0,0,1.328,2.827,2.637,2.637,0,0,0,2.82.878,3.807,3.807,0,0,0,1.743-2c3.528-6.939,5.622-14.516,7.276-22.122q1.035-4.761,1.852-9.566c.635-3.73,1.162-7.615.113-11.251s-4.093-6.963-7.872-7.147c-3.285-.16-6.323,2.088-7.987,4.924a15.619,15.619,0,0,0-2.1,9.3c.341,3.493-.211,6.919-.3,10.44A77.321,77.321,0,0,0,124.593,389.734Z" fill="#f6f4e9"/>
      <path id="Tracé_255" data-name="Tracé 255" d="M124.344,325.244a114.106,114.106,0,0,1-3.013-12.468c-.529-3.114-.829-6.366.092-9.387a3.138,3.138,0,0,1,2.835,1.281,8.8,8.8,0,0,1,1.35,2.949A185.868,185.868,0,0,1,131.09,332.2c.645,3.877,1.589,8.487.454,12.349-2.512-.591-3.089-5.968-3.752-8.019Q125.977,330.913,124.344,325.244Z" fill="#0c7577"/>
      <path id="Tracé_256" data-name="Tracé 256" d="M125.469,315.885c-.2-3.3-.22-6.728,1.122-9.746.235-.527.619-1.108,1.2-1.114a1.422,1.422,0,0,1,.945.487,9.934,9.934,0,0,1,2.3,4.978c2.655,10.948,3.673,22.506,1.059,33.463-.681,2.855-1.974-2.494-2.178-3.169q-1.224-4.044-2.128-8.176A108.351,108.351,0,0,1,125.469,315.885Z" fill="#056066"/>
      <path id="Tracé_257" data-name="Tracé 257" d="M131.745,327.978c-.011-5.767.074-11.675,2.1-17.075a2.076,2.076,0,0,1,1.061-1.362,1.459,1.459,0,0,1,1.639.781,4.14,4.14,0,0,1,.367,1.917,97.821,97.821,0,0,1-3.153,27.31,18.321,18.321,0,0,1-1.557,4.562c-.907-1.782-.353-5.034-.383-7.032Q131.754,332.529,131.745,327.978Z" fill="#0c7577"/>
      <path id="Tracé_258" data-name="Tracé 258" d="M129.352,355.225a24.91,24.91,0,0,0,4.467.6,6.188,6.188,0,0,0,2.108-.181,2.5,2.5,0,0,0,1.591-1.311" fill="none" stroke="#000" stroke-miterlimit="10" stroke-width="1.838" style="mix-blend-mode: soft-light;isolation: isolate"/>
      <path id="Tracé_259" data-name="Tracé 259" d="M128.581,361.05a11.456,11.456,0,0,0,8,1.071,2.962,2.962,0,0,0,1.341-.6" fill="none" stroke="#000" stroke-miterlimit="10" stroke-width="1.838" style="mix-blend-mode: soft-light;isolation: isolate"/>
      <path id="Tracé_260" data-name="Tracé 260" d="M127,366.778a7.76,7.76,0,0,0,7.469,1.285" fill="none" stroke="#000" stroke-miterlimit="10" stroke-width="1.838" style="mix-blend-mode: soft-light;isolation: isolate"/>
      <path id="Tracé_261" data-name="Tracé 261" d="M127.408,372.522a5.961,5.961,0,0,0,4.792,1.129" fill="none" stroke="#000" stroke-miterlimit="10" stroke-width="1.838" style="mix-blend-mode: soft-light;isolation: isolate"/>
      <path id="Tracé_262" data-name="Tracé 262" d="M127.426,377.33a11.941,11.941,0,0,0,3.124.776" fill="none" stroke="#000" stroke-miterlimit="10" stroke-width="1.838" style="mix-blend-mode: soft-light;isolation: isolate"/>
      <path id="Tracé_263" data-name="Tracé 263" d="M127.316,382.164a5.362,5.362,0,0,0,1.932.043" fill="none" stroke="#000" stroke-miterlimit="10" stroke-width="1.838" style="mix-blend-mode: soft-light;isolation: isolate"/>
    </g>
    <g id="Groupe_39" data-name="Groupe 39">
      <path id="Tracé_264" data-name="Tracé 264" d="M114.151,386.3a7.265,7.265,0,0,0,2.467,1.915,2.641,2.641,0,0,0,2.912-.5,3.814,3.814,0,0,0,.646-2.571c-.009-7.784-1.585-15.485-3.566-23.013q-1.239-4.711-2.694-9.363c-1.129-3.612-2.424-7.313-5.01-10.075s-6.809-4.344-10.26-2.792c-3,1.349-4.684,4.732-4.878,8.015a15.618,15.618,0,0,0,2.349,9.239c1.891,2.958,2.955,6.26,4.479,9.435A77.339,77.339,0,0,0,114.151,386.3Z" fill="#f6f4e9"/>
      <path id="Tracé_265" data-name="Tracé 265" d="M84.638,328.963a114.044,114.044,0,0,1-8.347-9.739c-1.885-2.534-3.63-5.3-4.181-8.4a3.137,3.137,0,0,1,3.107-.146,8.8,8.8,0,0,1,2.543,2.014,185.843,185.843,0,0,1,16.046,19.406c2.336,3.161,5.27,6.839,6.013,10.8-2.506.614-5.462-3.914-6.985-5.44Q88.668,333.273,84.638,328.963Z" fill="#0c7577"/>
      <path id="Tracé_266" data-name="Tracé 266" d="M81.39,320.114c-1.673-2.847-3.252-5.894-3.427-9.192-.03-.576.048-1.268.56-1.535a1.421,1.421,0,0,1,1.063,0,9.953,9.953,0,0,1,4.314,3.389c7.337,8.549,13.494,18.382,16.142,29.332.689,2.853-2.892-1.326-3.381-1.834q-2.927-3.048-5.609-6.318A108.343,108.343,0,0,1,81.39,320.114Z" fill="#056066"/>
      <path id="Tracé_267" data-name="Tracé 267" d="M92.474,328.038c-2.63-5.133-5.237-10.435-5.883-16.167a2.074,2.074,0,0,1,.327-1.7,1.458,1.458,0,0,1,1.814-.048,4.138,4.138,0,0,1,1.2,1.541,97.809,97.809,0,0,1,9.6,25.763,18.315,18.315,0,0,1,.686,4.771c-1.618-1.176-2.6-4.325-3.536-6.091Q94.548,332.088,92.474,328.038Z" fill="#0c7577"/>
      <path id="Tracé_268" data-name="Tracé 268" d="M102.717,353.4a25.014,25.014,0,0,0,4.253-1.495,6.2,6.2,0,0,0,1.795-1.119,2.5,2.5,0,0,0,.821-1.891" fill="none" stroke="#000" stroke-miterlimit="10" stroke-width="1.838" style="mix-blend-mode: soft-light;isolation: isolate"/>
      <path id="Tracé_269" data-name="Tracé 269" d="M104.676,358.939a11.451,11.451,0,0,0,7.617-2.682,2.971,2.971,0,0,0,.923-1.144" fill="none" stroke="#000" stroke-miterlimit="10" stroke-width="1.838" style="mix-blend-mode: soft-light;isolation: isolate"/>
      <path id="Tracé_270" data-name="Tracé 270" d="M105.873,364.757a7.759,7.759,0,0,0,7.238-2.246" fill="none" stroke="#000" stroke-miterlimit="10" stroke-width="1.838" style="mix-blend-mode: soft-light;isolation: isolate"/>
      <path id="Tracé_271" data-name="Tracé 271" d="M108.841,369.692a5.963,5.963,0,0,0,4.783-1.171" fill="none" stroke="#000" stroke-miterlimit="10" stroke-width="1.838" style="mix-blend-mode: soft-light;isolation: isolate"/>
      <path id="Tracé_272" data-name="Tracé 272" d="M111.041,373.967a11.941,11.941,0,0,0,3.136-.727" fill="none" stroke="#000" stroke-miterlimit="10" stroke-width="1.838" style="mix-blend-mode: soft-light;isolation: isolate"/>
      <path id="Tracé_273" data-name="Tracé 273" d="M113.139,378.324a5.4,5.4,0,0,0,1.741-.839" fill="none" stroke="#000" stroke-miterlimit="10" stroke-width="1.838" style="mix-blend-mode: soft-light;isolation: isolate"/>
    </g>
    <g id="Groupe_41" data-name="Groupe 41">
      <g id="Groupe_40" data-name="Groupe 40">
        <path id="Tracé_274" data-name="Tracé 274" d="M169.425,445.365c-5.767,2.186-12.043,2.527-18.2,2.831-25.455,1.256-52.1,3.3-77.121-2.615-2.181-.515-4.465-1.154-6.017-2.77-.725-.755-1.153-2.175-.254-2.713a2.072,2.072,0,0,1,1.4-.1c30.422,4.9,61.449,5.15,92.193,3.068,2.7-.183,6.072-1.489,8.65-1.365C173.154,441.848,171.574,444.55,169.425,445.365Z" fill="#fdb34a"/>
        <path id="Tracé_275" data-name="Tracé 275" d="M175.8,426.721c.222,5.207.195,11.21-3.773,14.589-2.31,1.967-5.461,2.548-8.46,3.005a258.794,258.794,0,0,1-86.795-1.546c-3.973-.751-8.151-1.709-11.069-4.507-4.665-4.474-4.479-11.8-4.748-18.263A80.209,80.209,0,0,0,47.783,379.32a851.869,851.869,0,0,0,106.5,1.148c9.82-.509,20.1-2.275,29.877-1.945-.852,3.419-3.5,6.6-4.7,10.02a65.06,65.06,0,0,0-2.9,12.078C175.293,409.25,175.432,418.03,175.8,426.721Z" fill="#f38347"/>
        <path id="Tracé_276" data-name="Tracé 276" d="M186.225,369.911c-3.345-1.37-8.338-.535-10.259,1.716-.116-1.97-2.653-3.758-5.655-3.987s-6.1,1.131-6.913,3.03c-1.793-1.958-5.247-3.219-8.744-3.193s-6.905,1.34-8.627,3.325c-1.078-1.877-4.013-3.232-7.085-3.273s-6.089,1.236-7.284,3.082c-1.62-2.033-5.163-3.345-8.672-3.211s-6.791,1.708-8.036,3.852c-1.469-1.981-4.742-3.334-8.116-3.355s-6.686,1.291-8.212,3.253c-.923-1.846-3.795-3.2-6.772-3.186s-5.825,1.384-6.715,3.237a19.053,19.053,0,0,0-8.981-3.834c-3.57-.48-7.69.322-9.632,2.333-2.456-1.639-5.094-3.348-8.5-3.907s-7.724.579-8.3,2.839c-1.469-2.115-6.988-2.162-8.541-.073a4.241,4.241,0,0,0-.568,2.951q.146,2.533.292,5.066a6,6,0,0,0,.805,3.184c1.489,2.2,6.133,3.191,9.329,1.988.727,2.825,6.389,4.538,10.166,3.075a6.463,6.463,0,0,1,2.412-.7,5.206,5.206,0,0,1,2.6,1.031,15.3,15.3,0,0,0,12.235.77,6.107,6.107,0,0,1,3.033-.711,5.349,5.349,0,0,1,1.966.886c3.552,2.042,9.971,1.2,12.047-1.57a19.616,19.616,0,0,0,15.387-.082c1.364,1.841,4.357,3.119,7.49,3.2s6.271-1.04,7.854-2.8c4.835,2.918,13.526,2.384,17.439-1.072,1.6,1.654,4.734,2.617,7.708,2.368s5.633-1.7,6.538-3.563c2.374,2.55,7.8,2.8,12.374,2.764,3.065-.026,7.276-.888,6.716-2.852,2.073,2.209,7.18,2.882,10.407,1.373,4.37-2.045,1.928-4.28,1.627-6.865C188.73,374.374,190.638,371.719,186.225,369.911Z" fill="#fdb34a"/>
      </g>
      <path id="Tracé_277" data-name="Tracé 277" d="M166.853,398.3a7.89,7.89,0,0,1-10.1,2.275" fill="none" stroke="#000" stroke-miterlimit="10" stroke-width="1.838" opacity="0.5" style="mix-blend-mode: soft-light;isolation: isolate"/>
      <path id="Tracé_278" data-name="Tracé 278" d="M144.055,399.945a13.707,13.707,0,0,1-11.2,2.563" fill="none" stroke="#000" stroke-miterlimit="10" stroke-width="1.838" opacity="0.5" style="mix-blend-mode: soft-light;isolation: isolate"/>
      <path id="Tracé_279" data-name="Tracé 279" d="M117.659,399.5a7.17,7.17,0,0,1-10.958,3.16" fill="none" stroke="#000" stroke-miterlimit="10" stroke-width="1.838" opacity="0.5" style="mix-blend-mode: soft-light;isolation: isolate"/>
      <path id="Tracé_280" data-name="Tracé 280" d="M94.329,400.593a23.491,23.491,0,0,1-11.273.063" fill="none" stroke="#000" stroke-miterlimit="10" stroke-width="1.838" opacity="0.5" style="mix-blend-mode: soft-light;isolation: isolate"/>
      <path id="Tracé_281" data-name="Tracé 281" d="M71.755,399.786a5.029,5.029,0,0,1-4.895.886" fill="none" stroke="#000" stroke-miterlimit="10" stroke-width="1.838" opacity="0.5" style="mix-blend-mode: soft-light;isolation: isolate"/>
      <path id="Tracé_282" data-name="Tracé 282" d="M154.949,410.122a4.084,4.084,0,0,1-2,3.693,8.866,8.866,0,0,1-4.222,1.16" fill="none" stroke="#000" stroke-miterlimit="10" stroke-width="1.838" opacity="0.5" style="mix-blend-mode: soft-light;isolation: isolate"/>
      <path id="Tracé_283" data-name="Tracé 283" d="M128.045,412.047a7.225,7.225,0,0,1-6.778,3.106" fill="none" stroke="#000" stroke-miterlimit="10" stroke-width="1.838" opacity="0.5" style="mix-blend-mode: soft-light;isolation: isolate"/>
      <path id="Tracé_284" data-name="Tracé 284" d="M103.555,412.025a8.076,8.076,0,0,1-9.441,1.676" fill="none" stroke="#000" stroke-miterlimit="10" stroke-width="1.838" opacity="0.5" style="mix-blend-mode: soft-light;isolation: isolate"/>
      <path id="Tracé_285" data-name="Tracé 285" d="M80.008,412.021a9.8,9.8,0,0,1-8.252.55" fill="none" stroke="#000" stroke-miterlimit="10" stroke-width="1.838" opacity="0.5" style="mix-blend-mode: soft-light;isolation: isolate"/>
      <path id="Tracé_286" data-name="Tracé 286" d="M164.632,422.993a4.607,4.607,0,0,1-4.281,4.246" fill="none" stroke="#000" stroke-miterlimit="10" stroke-width="1.838" opacity="0.5" style="mix-blend-mode: soft-light;isolation: isolate"/>
      <path id="Tracé_287" data-name="Tracé 287" d="M141.423,423.286a4.93,4.93,0,0,1-4.078,3.165,14.5,14.5,0,0,1-5.392-.5" fill="none" stroke="#000" stroke-miterlimit="10" stroke-width="1.838" opacity="0.5" style="mix-blend-mode: soft-light;isolation: isolate"/>
      <path id="Tracé_288" data-name="Tracé 288" d="M115.067,426.919a6.976,6.976,0,0,1-7.84,2.382" fill="none" stroke="#000" stroke-miterlimit="10" stroke-width="1.838" opacity="0.5" style="mix-blend-mode: soft-light;isolation: isolate"/>
      <path id="Tracé_289" data-name="Tracé 289" d="M90.749,426.106a8.894,8.894,0,0,1-9.2,2.315" fill="none" stroke="#000" stroke-miterlimit="10" stroke-width="1.838" opacity="0.5" style="mix-blend-mode: soft-light;isolation: isolate"/>
      <path id="Tracé_290" data-name="Tracé 290" d="M68.375,423.661l-2.444-.309" fill="none" stroke="#000" stroke-miterlimit="10" stroke-width="1.838" opacity="0.5" style="mix-blend-mode: soft-light;isolation: isolate"/>
      <path id="Tracé_291" data-name="Tracé 291" d="M154.189,434.265c.748,1.62-.6,3.583-2.29,4.155a9.653,9.653,0,0,1-5.273-.247" fill="none" stroke="#000" stroke-miterlimit="10" stroke-width="1.838" opacity="0.5" style="mix-blend-mode: soft-light;isolation: isolate"/>
      <path id="Tracé_292" data-name="Tracé 292" d="M129.058,437.238c-1.233,2.039-3.826,2.924-6.2,2.777a19.76,19.76,0,0,1-6.781-2.127" fill="none" stroke="#000" stroke-miterlimit="10" stroke-width="1.838" opacity="0.5" style="mix-blend-mode: soft-light;isolation: isolate"/>
      <path id="Tracé_293" data-name="Tracé 293" d="M99.55,436.439a7.9,7.9,0,0,1-5.2,2.128" fill="none" stroke="#000" stroke-miterlimit="10" stroke-width="1.838" opacity="0.5" style="mix-blend-mode: soft-light;isolation: isolate"/>
      <path id="Tracé_294" data-name="Tracé 294" d="M77.861,434.939a8.032,8.032,0,0,1-5.5-.664" fill="none" stroke="#000" stroke-miterlimit="10" stroke-width="1.838" opacity="0.5" style="mix-blend-mode: soft-light;isolation: isolate"/>
      <path id="Tracé_295" data-name="Tracé 295" d="M154.211,392.419a6.288,6.288,0,0,1-7.295,2.443" fill="none" stroke="#000" stroke-miterlimit="10" stroke-width="1.838" opacity="0.5" style="mix-blend-mode: soft-light;isolation: isolate"/>
      <path id="Tracé_296" data-name="Tracé 296" d="M128.908,394.971A22.7,22.7,0,0,1,121.55,396" fill="none" stroke="#000" stroke-miterlimit="10" stroke-width="1.838" opacity="0.5" style="mix-blend-mode: soft-light;isolation: isolate"/>
      <path id="Tracé_297" data-name="Tracé 297" d="M108.374,393.642a4.883,4.883,0,0,1-4.142,3.375,14.327,14.327,0,0,1-5.6-.62" fill="none" stroke="#000" stroke-miterlimit="10" stroke-width="1.838" opacity="0.5" style="mix-blend-mode: soft-light;isolation: isolate"/>
      <path id="Tracé_298" data-name="Tracé 298" d="M81.446,393.3a8.015,8.015,0,0,1-8,1.06" fill="none" stroke="#000" stroke-miterlimit="10" stroke-width="1.838" opacity="0.5" style="mix-blend-mode: soft-light;isolation: isolate"/>
      <path id="Tracé_299" data-name="Tracé 299" d="M63.194,391.836a9.911,9.911,0,0,1-5.2,1.807" fill="none" stroke="#000" stroke-miterlimit="10" stroke-width="1.838" opacity="0.5" style="mix-blend-mode: soft-light;isolation: isolate"/>
    </g>
  </g>
</svg>
